<?xml version="1.0"?>
<svg viewBox="-890 -890 1780 1780" width="1780" height="1780"
     xmlns="http://www.w3.org/2000/svg">
    <style>
        .b { fill: #162633 }
        .s { stroke: #446987 }
        .c { fill: #446987 }
        .h { stroke: #bcdaf8 }
        path { fill: none;
               stroke-width: 24;
               stroke-linecap: round;
               stroke-linejoin: round }
    </style>
    <!-- Background filled with darkest colour: -->
    <rect class="b" x="-890" width="1780" y="-890" height="1780"/>
    <!-- Pseudo-spiral of 14 half circles drawn in medium colour: -->
    <path class="s" d="M -700 0 A 700 700 0 0 1  700 0
                                  650 650 0 0 1 -600 0
                                  600 600 0 0 1  600 0
                                  550 550 0 0 1 -500 0
                                  500 500 0 0 1  500 0
                                  450 450 0 0 1 -400 0
                                  400 400 0 0 1  400 0
                                  350 350 0 0 1 -300 0
                                  300 300 0 0 1  300 0
                                  250 250 0 0 1 -200 0
                                  200 200 0 0 1  200 0
                                  150 150 0 0 1 -100 0
                                  100 100 0 0 1  100 0
                                   50  50 0 0 1    0 0"/>
    <!-- Center as filled circle to finish the spiral: -->
    <circle class="c" cx="0" cy="0" r="24"/>
    <!-- Heptagram drawn by the following points:
         a = 21/28 τ  cos(a) =  0    ⇒    0  sin(a) = -1    ⇒ -700
         b =  9/28 τ  cos(b) = -0.43 ⇒ -304  sin(b) =  0.90 ⇒  631
         c = 25/28 τ  cos(c) =  0.78 ⇒  547  sin(c) = -0.62 ⇒ -436
         d = 13/28 τ  cos(d) = -0.97 ⇒ -682  sin(d) =  0.22 ⇒  156
         e =  1/28 τ  cos(e) =  0.97 ⇒  682  sin(e) =  0.22 ⇒  156
         f = 17/28 τ  cos(f) = -0.78 ⇒ -547  sin(f) = -0.62 ⇒ -436
         g =  5/28 τ  cos(g) =  0.43 ⇒  304  sin(g) =  0.90 ⇒  631 -->
    <path class="h" d="M    0 -700
                         -304  631
                          547 -436
                         -682  156
                          682  156
                         -547 -436
                          304  631 Z"/>
</svg>
